Coordinates
version=1
nRows=12
nColumns=46
inDegrees=yes

Units are S.I. units (second, meters, Newtons, ...)
Angles are in degrees.

endheader
time	pelvis_tilt	pelvis_list	pelvis_rotation	pelvis_tx	pelvis_ty	pelvis_tz	bb_angle	bb_tx	bb_ty	bb_tz	hip_flexion_r	hip_adduction_r	hip_rotation_r	knee_angle_r	knee_angle_r_beta	ankle_angle_r	subtalar_angle_r	mtp_angle_r	crank_angle_r	hip_flexion_l	hip_adduction_l	hip_rotation_l	knee_angle_l	knee_angle_l_beta	ankle_angle_l	subtalar_angle_l	mtp_angle_l	crank_angle_l	lumbar_extension	lumbar_bending	lumbar_rotation	arm_flex_r	arm_add_r	arm_rot_r	elbow_flex_r	pro_sup_r	wrist_flex_r	wrist_dev_r	arm_flex_l	arm_add_l	arm_rot_l	elbow_flex_l	pro_sup_l	wrist_flex_l	wrist_dev_l
      0.00500000	    -24.45608349	      0.56410473	     -0.30154129	      0.08751904	      1.16173873	     -0.24532476	      0.00000000	      0.50000000	      0.00000000	      0.25000000	     64.08996320	     -4.66173699	     -2.33392390	     73.80620791	      1.28816134	     16.27806938	     -5.06414517	      0.00000000	      0.00000000	     77.45235117	     -5.12943623	     -1.32308863	     60.31680499	      1.05272684	     16.16862640	     -0.25282969	      0.00000000	      0.00000000	    -50.41202726	      0.99465214	      3.12446742	     89.86936102	      0.38193006	     12.30355669	     45.39719729	     17.13764707	      0.00000000	      0.00000000	     89.84756755	      5.83956028	     10.77068055	     43.35106599	     16.45724302	      0.00000000	      0.00000000
      0.01000000	    -24.29594922	      0.48330796	     -0.26158166	      0.08742131	      1.16201681	     -0.24534457	      0.00000000	      0.50000000	      0.00000000	      0.25000000	     63.89578821	     -4.67217452	     -2.46256841	     73.78832190	      1.28784917	     16.32585457	     -5.02390371	      0.00000000	      0.00000000	     77.30514881	     -5.14463132	     -1.26515467	     60.32673366	      1.05290013	     16.23761083	     -0.10586786	      0.00000000	      0.00000000	    -50.65280358	      1.11384460	      3.20864385	     89.86912438	      0.60827021	     11.53711669	     45.28604838	     19.53709395	      0.00000000	      0.00000000	     89.84800454	      6.04593947	     10.13524325	     43.10327647	     18.87915864	      0.00000000	      0.00000000
      0.01500000	    -24.46273131	      0.53224696	     -0.33656808	      0.08712056	      1.16135164	     -0.24507328	      0.00000000	      0.50000000	      0.00000000	      0.25000000	     64.17370862	     -4.60895569	     -2.36001739	     73.89795282	      1.28976259	     16.28232360	     -5.05361871	      0.00000000	      0.00000000	     77.51592180	     -5.21878784	     -1.33258024	     60.35697485	      1.05342794	     16.20924148	     -0.14612200	      0.00000000	      0.00000000	    -50.39511927	      1.02080794	      3.20473134	     89.86973817	      0.63580115	     11.54364224	     44.51934558	     21.93861180	      0.00000000	      0.00000000	     89.84762741	      6.00373581	     10.05059374	     42.46949190	     21.35822381	      0.00000000	      0.00000000
      0.02000000	    -24.43086311	      0.50564536	     -0.39817211	      0.08696525	      1.16113413	     -0.24505874	      0.00000000	      0.50000000	      0.00000000	      0.25000000	     64.17631054	     -4.55320242	     -2.36215390	     73.93022490	      1.29032584	     16.33228841	     -5.07498481	      0.00000000	      0.00000000	     77.50979289	     -5.28177191	     -1.31811805	     60.38861085	      1.05398009	     16.21014596	     -0.16948320	      0.00000000	      0.00000000	    -50.41215663	      0.99405093	      3.26310598	     89.86983199	      0.33552166	     12.34775281	     45.41465581	     17.39510562	      0.00000000	      0.00000000	     89.84760073	      5.84892240	     10.60013848	     43.39858972	     16.64773075	      0.00000000	      0.00000000
      0.02500000	    -24.40763640	      0.40390717	     -0.39323190	      0.08680028	      1.16091753	     -0.24501401	      0.00000000	      0.50000000	      0.00000000	      0.25000000	     64.17055872	     -4.50297583	     -2.47780268	     73.95108906	      1.29068999	     16.28917772	     -5.14216169	      0.00000000	      0.00000000	     77.53207792	     -5.29594698	     -1.18256992	     60.43216655	      1.05474028	     16.30547623	     -0.20411752	      0.00000000	      0.00000000	    -50.46746168	      1.09946740	      3.39339378	     89.86940376	      0.44111213	     11.90822866	     45.20284820	     19.47495539	      0.00000000	      0.00000000	     89.84800492	      5.95254410	     10.16219065	     43.15214012	     18.77619687	      0.00000000	      0.00000000
      0.03000000	    -24.36038074	      0.39698816	     -0.42412345	      0.08674454	      1.16082418	     -0.24485578	      0.00000000	      0.50000000	      0.00000000	      0.25000000	     64.14498739	     -4.46542449	     -2.46673511	     73.98551114	      1.29129077	     16.28023975	     -5.16543570	      0.00000000	      0.00000000	     77.48666862	     -5.35920770	     -1.20002516	     60.44817659	      1.05501971	     16.37637220	     -0.10127896	      0.00000000	      0.00000000	    -50.52282377	      1.08883437	      3.43014393	     89.86927652	      0.50879951	     11.63571547	     44.97063466	     21.07710198	      0.00000000	      0.00000000	     89.84823220	      6.03782041	      9.90048180	     42.85391065	     20.41974511	      0.00000000	      0.00000000
      0.03500000	    -24.41705852	      0.46459341	     -0.45154117	      0.08654358	      1.16044449	     -0.24475791	      0.00000000	      0.50000000	      0.00000000	      0.25000000	     64.28988638	     -4.49738120	     -2.41026159	     74.09302660	      1.29316727	     16.30695958	     -5.11280817	      0.00000000	      0.00000000	     77.53864224	     -5.35760402	     -1.25073829	     60.42334618	      1.05458634	     16.36540462	     -0.08677899	      0.00000000	      0.00000000	    -50.41457073	      1.00480269	      3.36193385	     89.86977787	      0.30516527	     12.40114760	     45.54132700	     17.20034116	      0.00000000	      0.00000000	     89.84797816	      5.83737982	     10.54599183	     43.56124700	     16.43749910	      0.00000000	      0.00000000
      0.04000000	    -24.41735388	      0.44802262	     -0.45142128	      0.08639275	      1.16022271	     -0.24471368	      0.00000000	      0.50000000	      0.00000000	      0.25000000	     64.33749673	     -4.50155528	     -2.45293221	     74.15915496	      1.29432142	     16.27862203	     -5.13170498	      0.00000000	      0.00000000	     77.56135439	     -5.33471093	     -1.19867991	     60.43816804	      1.05484503	     16.35364585	     -0.24540241	      0.00000000	      0.00000000	    -50.39998198	      1.00506006	      3.29198210	     89.87028434	      0.40516396	     12.37192808	     44.86765966	     20.28274032	      0.00000000	      0.00000000	     89.84830140	      5.78530590	     10.48660214	     42.95395148	     19.61232628	      0.00000000	      0.00000000
      0.04500000	    -24.36869458	      0.40816929	     -0.46240810	      0.08632021	      1.16009329	     -0.24465125	      0.00000000	      0.50000000	      0.00000000	      0.25000000	     64.31249165	     -4.47761902	     -2.49193946	     74.20902197	      1.29519177	     16.31561457	     -5.12212756	      0.00000000	      0.00000000	     77.53800091	     -5.37386399	     -1.17813491	     60.47788140	      1.05553816	     16.42039019	     -0.15831774	      0.00000000	      0.00000000	    -50.46483649	      1.06229962	      3.43400659	     89.86974172	      0.44988952	     11.92965926	     44.76650908	     21.77766985	      0.00000000	      0.00000000	     89.84887873	      5.93954974	     10.11497045	     42.69757155	     21.12624407	      0.00000000	      0.00000000
      0.05000000	    -24.38866704	      0.46798623	     -0.47437626	      0.08619795	      1.15977849	     -0.24458368	      0.00000000	      0.50000000	      0.00000000	      0.25000000	     64.41141783	     -4.51231245	     -2.43244906	     74.31214657	      1.29699163	     16.34932923	     -5.06964175	      0.00000000	      0.00000000	     77.55878770	     -5.36478181	     -1.23766586	     60.48109222	      1.05559419	     16.42498404	     -0.16245067	      0.00000000	      0.00000000	    -50.41233089	      0.98908427	      3.35090985	     89.86981130	      0.32587852	     12.46156396	     45.56830176	     17.28652334	      0.00000000	      0.00000000	     89.84791654	      5.79975685	     10.55728183	     43.61612964	     16.54338653	      0.00000000	      0.00000000
      0.05500000	    -24.46438126	      0.48646755	     -0.51922924	      0.08610066	      1.15936629	     -0.24436314	      0.00000000	      0.50000000	      0.00000000	      0.25000000	     64.55028491	     -4.46432914	     -2.38162460	     74.38293093	      1.29822705	     16.32575460	     -5.02810955	      0.00000000	      0.00000000	     77.66280563	     -5.41354965	     -1.24515304	     60.52069526	      1.05628540	     16.40914927	     -0.17941150	      0.00000000	      0.00000000	    -50.28646302	      0.88189373	      3.28695156	     89.86977634	      0.46178538	     12.10010524	     44.95415620	     19.85689002	      0.00000000	      0.00000000	     89.84857618	      5.92756577	     10.23645172	     43.02488792	     19.20214460	      0.00000000	      0.00000000
      0.06000000	    -24.33267951	      0.44929910	     -0.48339679	      0.08610262	      1.15941712	     -0.24442226	      0.00000000	      0.50000000	      0.00000000	      0.25000000	     64.43341360	     -4.49361578	     -2.44894042	     74.45016163	      1.29940045	     16.36471711	     -5.08967103	      0.00000000	      0.00000000	     77.53315751	     -5.38962875	     -1.21327102	     60.51773673	      1.05623376	     16.48414337	     -0.14879906	      0.00000000	      0.00000000	    -50.46506226	      1.00953346	      3.42598302	     89.86961927	      0.51539591	     11.67307777	     44.72135387	     22.22362828	      0.00000000	      0.00000000	     89.84908980	      6.02380567	      9.87427656	     42.65423294	     21.61251032	      0.00000000	      0.00000000
